<svg xmlns="http://www.w3.org/2000/svg" width="228" height="228" viewBox="0 0 228 228">
  <g id="Group_14" data-name="Group 14" transform="translate(-598 -366)">
    <path id="Flag_Icon_-_Light___Font_Awesome-23_1_" data-name="Flag Icon - Light _ Font Awesome-23 (1)" d="M75.272,17.913c-11,0-20.892-7.165-36.254-7.165a49.694,49.694,0,0,0-18.074,3.4,10.748,10.748,0,1,0-15.571,5.91v91a3.582,3.582,0,0,0,3.583,3.583h3.583a3.582,3.582,0,0,0,3.583-3.583V92.375C24.6,88.506,32.077,85.98,44.743,85.98c11,0,20.892,7.165,36.254,7.165a52.019,52.019,0,0,0,28.783-8.952,10.739,10.739,0,0,0,4.862-8.993V21.481A10.742,10.742,0,0,0,99.66,11.6C91.621,15.071,83.213,17.913,75.272,17.913Zm28.621,57.32A42.114,42.114,0,0,1,81,82.4c-13.422,0-22.839-7.165-36.254-7.165-9.709,0-21.58,2.105-28.621,5.374V28.66a42.115,42.115,0,0,1,22.9-7.165c13.422,0,22.839,7.165,36.254,7.165,9.689,0,21.567-3.888,28.621-7.165Z" transform="translate(655 423)" fill="#fff"/>
    <path id="Ban_Icon_-_Light___Font_Awesome-50" data-name="Ban Icon - Light _ Font Awesome-50" d="M122,8A114,114,0,1,0,236,122,114,114,0,0,0,122,8ZM51.791,192.209a99.28,99.28,0,0,1-5.01-135.027L186.819,197.219a99.28,99.28,0,0,1-135.028-5.01Zm145.428-5.391L57.182,46.781A99.295,99.295,0,0,1,197.219,186.818Z" transform="translate(590 358)" fill="#fff"/>
  </g>
</svg>
