<?xml version="1.0"?>
<svg xmlns="http://www.w3.org/2000/svg" xmlns:xlink="http://www.w3.org/1999/xlink" version="1.1" id="Capa_1" x="0px" y="0px" viewBox="0 0 512 512" style="enable-background:new 0 0 512 512;" xml:space="preserve" width="512px" height="512px" class=""><g><g>
	<g>
		<path d="M48,175.999H16c-8.832,0-16,6.368-16,14.24v227.552c0,7.84,7.168,14.208,16,14.208h32c8.832,0,16-6.368,16-14.24V190.207    C64,182.367,56.832,175.999,48,175.999z" data-original="#000000" class="active-path" data-old_color="#000000" fill="#FFFFFF"/>
	</g>
</g><g>
	<g>
		<path d="M480,175.999H242.88l48.96-38.944c14.08-10.88,16.32-31.04,5.12-44.8c-10.88-14.08-31.04-16.352-44.8-5.12L96,196.767    v213.056c11.744,13.44,28.832,22.176,48,22.176h160c17.6,0,32-14.4,32-32c0-17.6-14.4-32-32-32h16c17.664,0,32-14.336,32-32    s-14.336-32-32-32h16c17.664,0,32-14.336,32-32s-14.336-32-32-32h144c17.6,0,32-14.4,32-32C512,190.399,497.6,175.999,480,175.999    z" data-original="#000000" class="active-path" data-old_color="#000000" fill="#FFFFFF"/>
	</g>
</g></g> </svg>
